<svg xmlns="http://www.w3.org/2000/svg" version="1.1" xmlns:xlink="http://www.w3.org/1999/xlink" xmlns:svgjs="http://svgjs.com/svgjs" width="1440" height="560" preserveAspectRatio="none" viewBox="0 0 1440 560"><g mask="url(&quot;#SvgjsMask1000&quot;)" fill="none"><rect width="1440" height="560" x="0" y="0" fill="rgba(26, 40, 68, 1)"></rect><path d="M-79.85 338.83L-79.85 338.83" stroke="rgba(166, 29, 55, 1)" stroke-width="1.5"></path><path d="M-79.85 338.83L93.11 354.74" stroke="rgba(166, 29, 55, 1)" stroke-width="1.5"></path><path d="M-79.85 338.83L-48.48 514.96" stroke="rgba(166, 29, 55, 1)" stroke-width="1.5"></path><path d="M-79.85 338.83L225.1 402.6" stroke="rgba(166, 29, 55, 1)" stroke-width="1.5"></path><path d="M-48.48 514.96L-48.48 514.96" stroke="rgba(166, 29, 55, 1)" stroke-width="1.5"></path><path d="M-48.48 514.96L37.99 647.93" stroke="rgba(166, 29, 55, 1)" stroke-width="1.5"></path><path d="M-48.48 514.96L-111.23 667.98" stroke="rgba(166, 29, 55, 1)" stroke-width="1.5"></path><path d="M-48.48 514.96L93.11 354.74" stroke="rgba(166, 29, 55, 1)" stroke-width="1.5"></path><path d="M-48.48 514.96L225.1 402.6" stroke="rgba(166, 29, 55, 1)" stroke-width="1.5"></path><path d="M-48.48 514.96L220.61 639.48" stroke="rgba(166, 29, 55, 1)" stroke-width="1.5"></path><path d="M-111.23 667.98L-111.23 667.98" stroke="rgba(166, 29, 55, 1)" stroke-width="1.5"></path><path d="M-111.23 667.98L37.99 647.93" stroke="rgba(166, 29, 55, 1)" stroke-width="1.5"></path><path d="M93.11 354.74L93.11 354.74" stroke="rgba(166, 29, 55, 1)" stroke-width="1.5"></path><path d="M93.11 354.74L225.1 402.6" stroke="rgba(166, 29, 55, 1)" stroke-width="1.5"></path><path d="M93.11 354.74L249.28 498.6" stroke="rgba(166, 29, 55, 1)" stroke-width="1.5"></path><path d="M93.11 354.74L358.56 409.63" stroke="rgba(166, 29, 55, 1)" stroke-width="1.5"></path><path d="M93.11 354.74L37.99 647.93" stroke="rgba(166, 29, 55, 1)" stroke-width="1.5"></path><path d="M37.99 647.93L37.99 647.93" stroke="rgba(166, 29, 55, 1)" stroke-width="1.5"></path><path d="M225.1 402.6L225.1 402.6" stroke="rgba(166, 29, 55, 1)" stroke-width="1.5"></path><path d="M225.1 402.6L249.28 498.6" stroke="rgba(166, 29, 55, 1)" stroke-width="1.5"></path><path d="M225.1 402.6L358.56 409.63" stroke="rgba(166, 29, 55, 1)" stroke-width="1.5"></path><path d="M249.28 498.6L249.28 498.6" stroke="rgba(166, 29, 55, 1)" stroke-width="1.5"></path><path d="M249.28 498.6L358.56 409.63" stroke="rgba(166, 29, 55, 1)" stroke-width="1.5"></path><path d="M249.28 498.6L220.61 639.48" stroke="rgba(166, 29, 55, 1)" stroke-width="1.5"></path><path d="M249.28 498.6L404.61 542.68" stroke="rgba(166, 29, 55, 1)" stroke-width="1.5"></path><path d="M220.61 639.48L220.61 639.48" stroke="rgba(166, 29, 55, 1)" stroke-width="1.5"></path><path d="M220.61 639.48L361.07 654.29" stroke="rgba(166, 29, 55, 1)" stroke-width="1.5"></path><path d="M220.61 639.48L37.99 647.93" stroke="rgba(166, 29, 55, 1)" stroke-width="1.5"></path><path d="M220.61 639.48L404.61 542.68" stroke="rgba(166, 29, 55, 1)" stroke-width="1.5"></path><path d="M358.56 409.63L358.56 409.63" stroke="rgba(166, 29, 55, 1)" stroke-width="1.5"></path><path d="M358.56 409.63L404.61 542.68" stroke="rgba(166, 29, 55, 1)" stroke-width="1.5"></path><path d="M358.56 409.63L499.46 398.92" stroke="rgba(166, 29, 55, 1)" stroke-width="1.5"></path><path d="M358.56 409.63L488.16 536.01" stroke="rgba(166, 29, 55, 1)" stroke-width="1.5"></path><path d="M358.56 409.63L361.07 654.29" stroke="rgba(166, 29, 55, 1)" stroke-width="1.5"></path><path d="M404.61 542.68L404.61 542.68" stroke="rgba(166, 29, 55, 1)" stroke-width="1.5"></path><path d="M404.61 542.68L488.16 536.01" stroke="rgba(166, 29, 55, 1)" stroke-width="1.5"></path><path d="M404.61 542.68L361.07 654.29" stroke="rgba(166, 29, 55, 1)" stroke-width="1.5"></path><path d="M404.61 542.68L495.6 670.45" stroke="rgba(166, 29, 55, 1)" stroke-width="1.5"></path><path d="M404.61 542.68L499.46 398.92" stroke="rgba(166, 29, 55, 1)" stroke-width="1.5"></path><path d="M361.07 654.29L361.07 654.29" stroke="rgba(166, 29, 55, 1)" stroke-width="1.5"></path><path d="M361.07 654.29L495.6 670.45" stroke="rgba(166, 29, 55, 1)" stroke-width="1.5"></path><path d="M499.46 398.92L499.46 398.92" stroke="rgba(166, 29, 55, 1)" stroke-width="1.5"></path><path d="M499.46 398.92L488.16 536.01" stroke="rgba(166, 29, 55, 1)" stroke-width="1.5"></path><path d="M499.46 398.92L684.88 344.1" stroke="rgba(166, 29, 55, 1)" stroke-width="1.5"></path><path d="M499.46 398.92L249.28 498.6" stroke="rgba(166, 29, 55, 1)" stroke-width="1.5"></path><path d="M488.16 536.01L488.16 536.01" stroke="rgba(166, 29, 55, 1)" stroke-width="1.5"></path><path d="M488.16 536.01L495.6 670.45" stroke="rgba(166, 29, 55, 1)" stroke-width="1.5"></path><path d="M488.16 536.01L361.07 654.29" stroke="rgba(166, 29, 55, 1)" stroke-width="1.5"></path><path d="M495.6 670.45L495.6 670.45" stroke="rgba(166, 29, 55, 1)" stroke-width="1.5"></path><path d="M684.88 344.1L684.88 344.1" stroke="rgba(166, 29, 55, 1)" stroke-width="1.5"></path><path d="M684.88 344.1L830.11 374.71" stroke="rgba(166, 29, 55, 1)" stroke-width="1.5"></path><path d="M684.88 344.1L844.85 237.96" stroke="rgba(166, 29, 55, 1)" stroke-width="1.5"></path><path d="M668.32 681.55L668.32 681.55" stroke="rgba(166, 29, 55, 1)" stroke-width="1.5"></path><path d="M668.32 681.55L820.29 690.21" stroke="rgba(166, 29, 55, 1)" stroke-width="1.5"></path><path d="M668.32 681.55L495.6 670.45" stroke="rgba(166, 29, 55, 1)" stroke-width="1.5"></path><path d="M668.32 681.55L817.28 561.89" stroke="rgba(166, 29, 55, 1)" stroke-width="1.5"></path><path d="M668.32 681.55L488.16 536.01" stroke="rgba(166, 29, 55, 1)" stroke-width="1.5"></path><path d="M844.85 237.96L844.85 237.96" stroke="rgba(166, 29, 55, 1)" stroke-width="1.5"></path><path d="M844.85 237.96L944.9 258.46" stroke="rgba(166, 29, 55, 1)" stroke-width="1.5"></path><path d="M844.85 237.96L830.11 374.71" stroke="rgba(166, 29, 55, 1)" stroke-width="1.5"></path><path d="M830.11 374.71L830.11 374.71" stroke="rgba(166, 29, 55, 1)" stroke-width="1.5"></path><path d="M830.11 374.71L944.9 258.46" stroke="rgba(166, 29, 55, 1)" stroke-width="1.5"></path><path d="M830.11 374.71L1000.69 370.3" stroke="rgba(166, 29, 55, 1)" stroke-width="1.5"></path><path d="M817.28 561.89L817.28 561.89" stroke="rgba(166, 29, 55, 1)" stroke-width="1.5"></path><path d="M817.28 561.89L820.29 690.21" stroke="rgba(166, 29, 55, 1)" stroke-width="1.5"></path><path d="M817.28 561.89L964.95 637.85" stroke="rgba(166, 29, 55, 1)" stroke-width="1.5"></path><path d="M817.28 561.89L993.57 516.53" stroke="rgba(166, 29, 55, 1)" stroke-width="1.5"></path><path d="M817.28 561.89L830.11 374.71" stroke="rgba(166, 29, 55, 1)" stroke-width="1.5"></path><path d="M820.29 690.21L820.29 690.21" stroke="rgba(166, 29, 55, 1)" stroke-width="1.5"></path><path d="M820.29 690.21L964.95 637.85" stroke="rgba(166, 29, 55, 1)" stroke-width="1.5"></path><path d="M820.29 690.21L993.57 516.53" stroke="rgba(166, 29, 55, 1)" stroke-width="1.5"></path><path d="M952.14 -70.98L952.14 -70.98" stroke="rgba(166, 29, 55, 1)" stroke-width="1.5"></path><path d="M952.14 -70.98L987.44 86.62" stroke="rgba(166, 29, 55, 1)" stroke-width="1.5"></path><path d="M952.14 -70.98L1141.75 -84.45" stroke="rgba(166, 29, 55, 1)" stroke-width="1.5"></path><path d="M952.14 -70.98L1107.72 49.58" stroke="rgba(166, 29, 55, 1)" stroke-width="1.5"></path><path d="M952.14 -70.98L1243.36 -85.53" stroke="rgba(166, 29, 55, 1)" stroke-width="1.5"></path><path d="M952.14 -70.98L1109.51 203.5" stroke="rgba(166, 29, 55, 1)" stroke-width="1.5"></path><path d="M952.14 -70.98L844.85 237.96" stroke="rgba(166, 29, 55, 1)" stroke-width="1.5"></path><path d="M987.44 86.62L987.44 86.62" stroke="rgba(166, 29, 55, 1)" stroke-width="1.5"></path><path d="M987.44 86.62L1107.72 49.58" stroke="rgba(166, 29, 55, 1)" stroke-width="1.5"></path><path d="M987.44 86.62L1109.51 203.5" stroke="rgba(166, 29, 55, 1)" stroke-width="1.5"></path><path d="M987.44 86.62L944.9 258.46" stroke="rgba(166, 29, 55, 1)" stroke-width="1.5"></path><path d="M944.9 258.46L944.9 258.46" stroke="rgba(166, 29, 55, 1)" stroke-width="1.5"></path><path d="M944.9 258.46L1000.69 370.3" stroke="rgba(166, 29, 55, 1)" stroke-width="1.5"></path><path d="M944.9 258.46L1109.51 203.5" stroke="rgba(166, 29, 55, 1)" stroke-width="1.5"></path><path d="M1000.69 370.3L1000.69 370.3" stroke="rgba(166, 29, 55, 1)" stroke-width="1.5"></path><path d="M1000.69 370.3L1129.2 347.26" stroke="rgba(166, 29, 55, 1)" stroke-width="1.5"></path><path d="M993.57 516.53L993.57 516.53" stroke="rgba(166, 29, 55, 1)" stroke-width="1.5"></path><path d="M993.57 516.53L1105.19 551.12" stroke="rgba(166, 29, 55, 1)" stroke-width="1.5"></path><path d="M993.57 516.53L964.95 637.85" stroke="rgba(166, 29, 55, 1)" stroke-width="1.5"></path><path d="M964.95 637.85L964.95 637.85" stroke="rgba(166, 29, 55, 1)" stroke-width="1.5"></path><path d="M1141.75 -84.45L1141.75 -84.45" stroke="rgba(166, 29, 55, 1)" stroke-width="1.5"></path><path d="M1141.75 -84.45L1243.36 -85.53" stroke="rgba(166, 29, 55, 1)" stroke-width="1.5"></path><path d="M1141.75 -84.45L1107.72 49.58" stroke="rgba(166, 29, 55, 1)" stroke-width="1.5"></path><path d="M1107.72 49.58L1107.72 49.58" stroke="rgba(166, 29, 55, 1)" stroke-width="1.5"></path><path d="M1107.72 49.58L1109.51 203.5" stroke="rgba(166, 29, 55, 1)" stroke-width="1.5"></path><path d="M1107.72 49.58L1267.84 80.28" stroke="rgba(166, 29, 55, 1)" stroke-width="1.5"></path><path d="M1107.72 49.58L1243.36 -85.53" stroke="rgba(166, 29, 55, 1)" stroke-width="1.5"></path><path d="M1109.51 203.5L1109.51 203.5" stroke="rgba(166, 29, 55, 1)" stroke-width="1.5"></path><path d="M1109.51 203.5L1242.74 249.06" stroke="rgba(166, 29, 55, 1)" stroke-width="1.5"></path><path d="M1109.51 203.5L1129.2 347.26" stroke="rgba(166, 29, 55, 1)" stroke-width="1.5"></path><path d="M1129.2 347.26L1129.2 347.26" stroke="rgba(166, 29, 55, 1)" stroke-width="1.5"></path><path d="M1129.2 347.26L1256.01 364.5" stroke="rgba(166, 29, 55, 1)" stroke-width="1.5"></path><path d="M1105.19 551.12L1105.19 551.12" stroke="rgba(166, 29, 55, 1)" stroke-width="1.5"></path><path d="M1105.19 551.12L1116.03 700.58" stroke="rgba(166, 29, 55, 1)" stroke-width="1.5"></path><path d="M1105.19 551.12L964.95 637.85" stroke="rgba(166, 29, 55, 1)" stroke-width="1.5"></path><path d="M1105.19 551.12L1260.17 658.24" stroke="rgba(166, 29, 55, 1)" stroke-width="1.5"></path><path d="M1105.19 551.12L1129.2 347.26" stroke="rgba(166, 29, 55, 1)" stroke-width="1.5"></path><path d="M1116.03 700.58L1116.03 700.58" stroke="rgba(166, 29, 55, 1)" stroke-width="1.5"></path><path d="M1116.03 700.58L1260.17 658.24" stroke="rgba(166, 29, 55, 1)" stroke-width="1.5"></path><path d="M1116.03 700.58L964.95 637.85" stroke="rgba(166, 29, 55, 1)" stroke-width="1.5"></path><path d="M1243.36 -85.53L1243.36 -85.53" stroke="rgba(166, 29, 55, 1)" stroke-width="1.5"></path><path d="M1243.36 -85.53L1267.84 80.28" stroke="rgba(166, 29, 55, 1)" stroke-width="1.5"></path><path d="M1267.84 80.28L1267.84 80.28" stroke="rgba(166, 29, 55, 1)" stroke-width="1.5"></path><path d="M1267.84 80.28L1242.74 249.06" stroke="rgba(166, 29, 55, 1)" stroke-width="1.5"></path><path d="M1267.84 80.28L1445.3 39.85" stroke="rgba(166, 29, 55, 1)" stroke-width="1.5"></path><path d="M1267.84 80.28L1109.51 203.5" stroke="rgba(166, 29, 55, 1)" stroke-width="1.5"></path><path d="M1242.74 249.06L1242.74 249.06" stroke="rgba(166, 29, 55, 1)" stroke-width="1.5"></path><path d="M1242.74 249.06L1256.01 364.5" stroke="rgba(166, 29, 55, 1)" stroke-width="1.5"></path><path d="M1242.74 249.06L1129.2 347.26" stroke="rgba(166, 29, 55, 1)" stroke-width="1.5"></path><path d="M1242.74 249.06L1400.05 236.38" stroke="rgba(166, 29, 55, 1)" stroke-width="1.5"></path><path d="M1256.01 364.5L1256.01 364.5" stroke="rgba(166, 29, 55, 1)" stroke-width="1.5"></path><path d="M1260.17 658.24L1260.17 658.24" stroke="rgba(166, 29, 55, 1)" stroke-width="1.5"></path><path d="M1260.17 658.24L1390.25 662.51" stroke="rgba(166, 29, 55, 1)" stroke-width="1.5"></path><path d="M1260.17 658.24L1433.22 516.17" stroke="rgba(166, 29, 55, 1)" stroke-width="1.5"></path><path d="M1260.17 658.24L1400.74 410.16" stroke="rgba(166, 29, 55, 1)" stroke-width="1.5"></path><path d="M1456.81 -43.33L1456.81 -43.33" stroke="rgba(166, 29, 55, 1)" stroke-width="1.5"></path><path d="M1456.81 -43.33L1445.3 39.85" stroke="rgba(166, 29, 55, 1)" stroke-width="1.5"></path><path d="M1456.81 -43.33L1556.74 -53.65" stroke="rgba(166, 29, 55, 1)" stroke-width="1.5"></path><path d="M1445.3 39.85L1445.3 39.85" stroke="rgba(166, 29, 55, 1)" stroke-width="1.5"></path><path d="M1445.3 39.85L1556.74 -53.65" stroke="rgba(166, 29, 55, 1)" stroke-width="1.5"></path><path d="M1400.05 236.38L1400.05 236.38" stroke="rgba(166, 29, 55, 1)" stroke-width="1.5"></path><path d="M1400.05 236.38L1400.74 410.16" stroke="rgba(166, 29, 55, 1)" stroke-width="1.5"></path><path d="M1400.74 410.16L1400.74 410.16" stroke="rgba(166, 29, 55, 1)" stroke-width="1.5"></path><path d="M1400.74 410.16L1433.22 516.17" stroke="rgba(166, 29, 55, 1)" stroke-width="1.5"></path><path d="M1400.74 410.16L1549.81 396.57" stroke="rgba(166, 29, 55, 1)" stroke-width="1.5"></path><path d="M1400.74 410.16L1256.01 364.5" stroke="rgba(166, 29, 55, 1)" stroke-width="1.5"></path><path d="M1433.22 516.17L1433.22 516.17" stroke="rgba(166, 29, 55, 1)" stroke-width="1.5"></path><path d="M1433.22 516.17L1552.13 516.77" stroke="rgba(166, 29, 55, 1)" stroke-width="1.5"></path><path d="M1433.22 516.17L1390.25 662.51" stroke="rgba(166, 29, 55, 1)" stroke-width="1.5"></path><path d="M1390.25 662.51L1390.25 662.51" stroke="rgba(166, 29, 55, 1)" stroke-width="1.5"></path><path d="M1390.25 662.51L1597.45 709.97" stroke="rgba(166, 29, 55, 1)" stroke-width="1.5"></path><path d="M1390.25 662.51L1552.13 516.77" stroke="rgba(166, 29, 55, 1)" stroke-width="1.5"></path><path d="M1556.74 -53.65L1556.74 -53.65" stroke="rgba(166, 29, 55, 1)" stroke-width="1.5"></path><path d="M1556.74 -53.65L1604.56 39.71" stroke="rgba(166, 29, 55, 1)" stroke-width="1.5"></path><path d="M1556.74 -53.65L1596.58 229.21" stroke="rgba(166, 29, 55, 1)" stroke-width="1.5"></path><path d="M1604.56 39.71L1604.56 39.71" stroke="rgba(166, 29, 55, 1)" stroke-width="1.5"></path><path d="M1604.56 39.71L1445.3 39.85" stroke="rgba(166, 29, 55, 1)" stroke-width="1.5"></path><path d="M1604.56 39.71L1456.81 -43.33" stroke="rgba(166, 29, 55, 1)" stroke-width="1.5"></path><path d="M1596.58 229.21L1596.58 229.21" stroke="rgba(166, 29, 55, 1)" stroke-width="1.5"></path><path d="M1596.58 229.21L1549.81 396.57" stroke="rgba(166, 29, 55, 1)" stroke-width="1.5"></path><path d="M1596.58 229.21L1604.56 39.71" stroke="rgba(166, 29, 55, 1)" stroke-width="1.5"></path><path d="M1596.58 229.21L1400.05 236.38" stroke="rgba(166, 29, 55, 1)" stroke-width="1.5"></path><path d="M1596.58 229.21L1445.3 39.85" stroke="rgba(166, 29, 55, 1)" stroke-width="1.5"></path><path d="M1549.81 396.57L1549.81 396.57" stroke="rgba(166, 29, 55, 1)" stroke-width="1.5"></path><path d="M1549.81 396.57L1552.13 516.77" stroke="rgba(166, 29, 55, 1)" stroke-width="1.5"></path><path d="M1549.81 396.57L1433.22 516.17" stroke="rgba(166, 29, 55, 1)" stroke-width="1.5"></path><path d="M1552.13 516.77L1552.13 516.77" stroke="rgba(166, 29, 55, 1)" stroke-width="1.5"></path><path d="M1552.13 516.77L1400.74 410.16" stroke="rgba(166, 29, 55, 1)" stroke-width="1.5"></path><path d="M1597.45 709.97L1597.45 709.97" stroke="rgba(166, 29, 55, 1)" stroke-width="1.5"></path><path d="M1597.45 709.97L1552.13 516.77" stroke="rgba(166, 29, 55, 1)" stroke-width="1.5"></path><circle r="5" cx="-79.85" cy="338.83" fill="rgba(166, 29, 55, 1)"></circle><circle r="5" cx="-48.48" cy="514.96" fill="rgba(166, 29, 55, 1)"></circle><circle r="5" cx="-111.23" cy="667.98" fill="rgba(166, 29, 55, 1)"></circle><circle r="5" cx="93.11" cy="354.74" fill="rgba(166, 29, 55, 1)"></circle><circle r="5" cx="37.99" cy="647.93" fill="rgba(166, 29, 55, 1)"></circle><circle r="5" cx="225.1" cy="402.6" fill="rgba(166, 29, 55, 1)"></circle><circle r="5" cx="249.28" cy="498.6" fill="rgba(166, 29, 55, 1)"></circle><circle r="5" cx="220.61" cy="639.48" fill="rgba(166, 29, 55, 1)"></circle><circle r="5" cx="358.56" cy="409.63" fill="rgba(166, 29, 55, 1)"></circle><circle r="5" cx="404.61" cy="542.68" fill="rgba(166, 29, 55, 1)"></circle><circle r="5" cx="361.07" cy="654.29" fill="rgba(166, 29, 55, 1)"></circle><circle r="5" cx="499.46" cy="398.92" fill="rgba(166, 29, 55, 1)"></circle><circle r="5" cx="488.16" cy="536.01" fill="rgba(166, 29, 55, 1)"></circle><circle r="5" cx="495.6" cy="670.45" fill="rgba(166, 29, 55, 1)"></circle><circle r="5" cx="684.88" cy="344.1" fill="rgba(166, 29, 55, 1)"></circle><circle r="5" cx="668.32" cy="681.55" fill="rgba(166, 29, 55, 1)"></circle><circle r="5" cx="844.85" cy="237.96" fill="rgba(166, 29, 55, 1)"></circle><circle r="5" cx="830.11" cy="374.71" fill="rgba(166, 29, 55, 1)"></circle><circle r="5" cx="817.28" cy="561.89" fill="rgba(166, 29, 55, 1)"></circle><circle r="5" cx="820.29" cy="690.21" fill="rgba(166, 29, 55, 1)"></circle><circle r="5" cx="952.14" cy="-70.98" fill="rgba(166, 29, 55, 1)"></circle><circle r="5" cx="987.44" cy="86.62" fill="rgba(166, 29, 55, 1)"></circle><circle r="5" cx="944.9" cy="258.46" fill="rgba(166, 29, 55, 1)"></circle><circle r="5" cx="1000.69" cy="370.3" fill="rgba(166, 29, 55, 1)"></circle><circle r="5" cx="993.57" cy="516.53" fill="rgba(166, 29, 55, 1)"></circle><circle r="5" cx="964.95" cy="637.85" fill="rgba(166, 29, 55, 1)"></circle><circle r="5" cx="1141.75" cy="-84.45" fill="rgba(166, 29, 55, 1)"></circle><circle r="5" cx="1107.72" cy="49.58" fill="rgba(166, 29, 55, 1)"></circle><circle r="5" cx="1109.51" cy="203.5" fill="rgba(166, 29, 55, 1)"></circle><circle r="5" cx="1129.2" cy="347.26" fill="rgba(166, 29, 55, 1)"></circle><circle r="5" cx="1105.19" cy="551.12" fill="rgba(166, 29, 55, 1)"></circle><circle r="5" cx="1116.03" cy="700.58" fill="rgba(166, 29, 55, 1)"></circle><circle r="5" cx="1243.36" cy="-85.53" fill="rgba(166, 29, 55, 1)"></circle><circle r="5" cx="1267.84" cy="80.28" fill="rgba(166, 29, 55, 1)"></circle><circle r="5" cx="1242.74" cy="249.06" fill="rgba(166, 29, 55, 1)"></circle><circle r="5" cx="1256.01" cy="364.5" fill="rgba(166, 29, 55, 1)"></circle><circle r="5" cx="1260.17" cy="658.24" fill="rgba(166, 29, 55, 1)"></circle><circle r="5" cx="1456.81" cy="-43.33" fill="rgba(166, 29, 55, 1)"></circle><circle r="5" cx="1445.3" cy="39.85" fill="rgba(166, 29, 55, 1)"></circle><circle r="5" cx="1400.05" cy="236.38" fill="rgba(166, 29, 55, 1)"></circle><circle r="5" cx="1400.74" cy="410.16" fill="rgba(166, 29, 55, 1)"></circle><circle r="5" cx="1433.22" cy="516.17" fill="rgba(166, 29, 55, 1)"></circle><circle r="5" cx="1390.25" cy="662.51" fill="rgba(166, 29, 55, 1)"></circle><circle r="5" cx="1556.74" cy="-53.65" fill="rgba(166, 29, 55, 1)"></circle><circle r="5" cx="1604.56" cy="39.71" fill="rgba(166, 29, 55, 1)"></circle><circle r="5" cx="1596.58" cy="229.21" fill="rgba(166, 29, 55, 1)"></circle><circle r="5" cx="1549.81" cy="396.57" fill="rgba(166, 29, 55, 1)"></circle><circle r="5" cx="1552.13" cy="516.77" fill="rgba(166, 29, 55, 1)"></circle><circle r="5" cx="1597.45" cy="709.97" fill="rgba(166, 29, 55, 1)"></circle><path d="M92.12 559.94L92.12 559.94" stroke="hsl(348.6, 70.3%, 49.7%)" stroke-width="1.5"></path><path d="M92.12 559.94L198.87 502.92" stroke="hsl(348.6, 70.3%, 49.7%)" stroke-width="1.5"></path><path d="M92.12 559.94L44.88 711.87" stroke="hsl(348.6, 70.3%, 49.7%)" stroke-width="1.5"></path><path d="M92.12 559.94L-40.12 690.3" stroke="hsl(348.6, 70.3%, 49.7%)" stroke-width="1.5"></path><path d="M92.12 559.94L-94.93 491.53" stroke="hsl(348.6, 70.3%, 49.7%)" stroke-width="1.5"></path><path d="M358.75 535.03L358.75 535.03" stroke="hsl(348.6, 70.3%, 49.7%)" stroke-width="1.5"></path><path d="M358.75 535.03L498.91 510.33" stroke="hsl(348.6, 70.3%, 49.7%)" stroke-width="1.5"></path><path d="M358.75 535.03L351.97 680.34" stroke="hsl(348.6, 70.3%, 49.7%)" stroke-width="1.5"></path><path d="M358.75 535.03L198.87 502.92" stroke="hsl(348.6, 70.3%, 49.7%)" stroke-width="1.5"></path><path d="M358.75 535.03L503.47 656.7" stroke="hsl(348.6, 70.3%, 49.7%)" stroke-width="1.5"></path><path d="M351.97 680.34L351.97 680.34" stroke="hsl(348.6, 70.3%, 49.7%)" stroke-width="1.5"></path><path d="M351.97 680.34L503.47 656.7" stroke="hsl(348.6, 70.3%, 49.7%)" stroke-width="1.5"></path><path d="M690.5 379.02L690.5 379.02" stroke="hsl(348.6, 70.3%, 49.7%)" stroke-width="1.5"></path><path d="M690.5 379.02L789.1 372.99" stroke="hsl(348.6, 70.3%, 49.7%)" stroke-width="1.5"></path><path d="M690.5 379.02L653.37 532.73" stroke="hsl(348.6, 70.3%, 49.7%)" stroke-width="1.5"></path><path d="M653.37 532.73L653.37 532.73" stroke="hsl(348.6, 70.3%, 49.7%)" stroke-width="1.5"></path><path d="M653.37 532.73L700.41 664.43" stroke="hsl(348.6, 70.3%, 49.7%)" stroke-width="1.5"></path><path d="M653.37 532.73L793.63 524.37" stroke="hsl(348.6, 70.3%, 49.7%)" stroke-width="1.5"></path><path d="M700.41 664.43L700.41 664.43" stroke="hsl(348.6, 70.3%, 49.7%)" stroke-width="1.5"></path><path d="M700.41 664.43L848.4 653.21" stroke="hsl(348.6, 70.3%, 49.7%)" stroke-width="1.5"></path><path d="M700.41 664.43L793.63 524.37" stroke="hsl(348.6, 70.3%, 49.7%)" stroke-width="1.5"></path><path d="M700.41 664.43L503.47 656.7" stroke="hsl(348.6, 70.3%, 49.7%)" stroke-width="1.5"></path><path d="M700.41 664.43L498.91 510.33" stroke="hsl(348.6, 70.3%, 49.7%)" stroke-width="1.5"></path><path d="M1002.24 398.46L1002.24 398.46" stroke="hsl(348.6, 70.3%, 49.7%)" stroke-width="1.5"></path><path d="M1002.24 398.46L972.02 540.37" stroke="hsl(348.6, 70.3%, 49.7%)" stroke-width="1.5"></path><path d="M1002.24 398.46L1139.9 349.58" stroke="hsl(348.6, 70.3%, 49.7%)" stroke-width="1.5"></path><path d="M1002.24 398.46L1138.76 509.87" stroke="hsl(348.6, 70.3%, 49.7%)" stroke-width="1.5"></path><path d="M1002.24 398.46L789.1 372.99" stroke="hsl(348.6, 70.3%, 49.7%)" stroke-width="1.5"></path><path d="M1272 108.44L1272 108.44" stroke="hsl(348.6, 70.3%, 49.7%)" stroke-width="1.5"></path><path d="M1272 108.44L1389.34 73.43" stroke="hsl(348.6, 70.3%, 49.7%)" stroke-width="1.5"></path><path d="M1272 108.44L1144.09 110.68" stroke="hsl(348.6, 70.3%, 49.7%)" stroke-width="1.5"></path><path d="M1272 108.44L1253.27 246.03" stroke="hsl(348.6, 70.3%, 49.7%)" stroke-width="1.5"></path><path d="M1272 108.44L1133.7 216.07" stroke="hsl(348.6, 70.3%, 49.7%)" stroke-width="1.5"></path><path d="M1272 108.44L1302.34 -77.47" stroke="hsl(348.6, 70.3%, 49.7%)" stroke-width="1.5"></path><path d="M1312.34 521.22L1312.34 521.22" stroke="hsl(348.6, 70.3%, 49.7%)" stroke-width="1.5"></path><path d="M1312.34 521.22L1407.88 531.09" stroke="hsl(348.6, 70.3%, 49.7%)" stroke-width="1.5"></path><path d="M1417.75 -79.51L1417.75 -79.51" stroke="hsl(348.6, 70.3%, 49.7%)" stroke-width="1.5"></path><path d="M1417.75 -79.51L1302.34 -77.47" stroke="hsl(348.6, 70.3%, 49.7%)" stroke-width="1.5"></path><path d="M1417.75 -79.51L1389.34 73.43" stroke="hsl(348.6, 70.3%, 49.7%)" stroke-width="1.5"></path><path d="M1417.75 -79.51L1577.72 -60.83" stroke="hsl(348.6, 70.3%, 49.7%)" stroke-width="1.5"></path><path d="M1391.57 663.62L1391.57 663.62" stroke="hsl(348.6, 70.3%, 49.7%)" stroke-width="1.5"></path><path d="M1391.57 663.62L1296.25 649.42" stroke="hsl(348.6, 70.3%, 49.7%)" stroke-width="1.5"></path><path d="M1391.57 663.62L1407.88 531.09" stroke="hsl(348.6, 70.3%, 49.7%)" stroke-width="1.5"></path><path d="M1391.57 663.62L1544.32 705.52" stroke="hsl(348.6, 70.3%, 49.7%)" stroke-width="1.5"></path><path d="M1391.57 663.62L1312.34 521.22" stroke="hsl(348.6, 70.3%, 49.7%)" stroke-width="1.5"></path><path d="M-94.93 491.53L-94.93 491.53" stroke="hsl(348.6, 70.3%, 49.7%)" stroke-width="1.5"></path><path d="M-94.93 491.53L-40.12 690.3" stroke="hsl(348.6, 70.3%, 49.7%)" stroke-width="1.5"></path><path d="M-94.93 491.53L44.88 711.87" stroke="hsl(348.6, 70.3%, 49.7%)" stroke-width="1.5"></path><path d="M-94.93 491.53L198.87 502.92" stroke="hsl(348.6, 70.3%, 49.7%)" stroke-width="1.5"></path><path d="M-94.93 491.53L358.75 535.03" stroke="hsl(348.6, 70.3%, 49.7%)" stroke-width="1.5"></path><path d="M-40.12 690.3L-40.12 690.3" stroke="hsl(348.6, 70.3%, 49.7%)" stroke-width="1.5"></path><path d="M-40.12 690.3L44.88 711.87" stroke="hsl(348.6, 70.3%, 49.7%)" stroke-width="1.5"></path><path d="M-40.12 690.3L198.87 502.92" stroke="hsl(348.6, 70.3%, 49.7%)" stroke-width="1.5"></path><path d="M-40.12 690.3L351.97 680.34" stroke="hsl(348.6, 70.3%, 49.7%)" stroke-width="1.5"></path><path d="M44.88 711.87L44.88 711.87" stroke="hsl(348.6, 70.3%, 49.7%)" stroke-width="1.5"></path><path d="M44.88 711.87L198.87 502.92" stroke="hsl(348.6, 70.3%, 49.7%)" stroke-width="1.5"></path><path d="M44.88 711.87L351.97 680.34" stroke="hsl(348.6, 70.3%, 49.7%)" stroke-width="1.5"></path><path d="M44.88 711.87L358.75 535.03" stroke="hsl(348.6, 70.3%, 49.7%)" stroke-width="1.5"></path><path d="M198.87 502.92L198.87 502.92" stroke="hsl(348.6, 70.3%, 49.7%)" stroke-width="1.5"></path><path d="M198.87 502.92L351.97 680.34" stroke="hsl(348.6, 70.3%, 49.7%)" stroke-width="1.5"></path><path d="M498.91 510.33L498.91 510.33" stroke="hsl(348.6, 70.3%, 49.7%)" stroke-width="1.5"></path><path d="M498.91 510.33L503.47 656.7" stroke="hsl(348.6, 70.3%, 49.7%)" stroke-width="1.5"></path><path d="M498.91 510.33L653.37 532.73" stroke="hsl(348.6, 70.3%, 49.7%)" stroke-width="1.5"></path><path d="M498.91 510.33L351.97 680.34" stroke="hsl(348.6, 70.3%, 49.7%)" stroke-width="1.5"></path><path d="M498.91 510.33L690.5 379.02" stroke="hsl(348.6, 70.3%, 49.7%)" stroke-width="1.5"></path><path d="M503.47 656.7L503.47 656.7" stroke="hsl(348.6, 70.3%, 49.7%)" stroke-width="1.5"></path><path d="M503.47 656.7L653.37 532.73" stroke="hsl(348.6, 70.3%, 49.7%)" stroke-width="1.5"></path><path d="M789.1 372.99L789.1 372.99" stroke="hsl(348.6, 70.3%, 49.7%)" stroke-width="1.5"></path><path d="M789.1 372.99L793.63 524.37" stroke="hsl(348.6, 70.3%, 49.7%)" stroke-width="1.5"></path><path d="M789.1 372.99L653.37 532.73" stroke="hsl(348.6, 70.3%, 49.7%)" stroke-width="1.5"></path><path d="M793.63 524.37L793.63 524.37" stroke="hsl(348.6, 70.3%, 49.7%)" stroke-width="1.5"></path><path d="M793.63 524.37L848.4 653.21" stroke="hsl(348.6, 70.3%, 49.7%)" stroke-width="1.5"></path><path d="M793.63 524.37L690.5 379.02" stroke="hsl(348.6, 70.3%, 49.7%)" stroke-width="1.5"></path><path d="M848.4 653.21L848.4 653.21" stroke="hsl(348.6, 70.3%, 49.7%)" stroke-width="1.5"></path><path d="M848.4 653.21L972.02 540.37" stroke="hsl(348.6, 70.3%, 49.7%)" stroke-width="1.5"></path><path d="M848.4 653.21L653.37 532.73" stroke="hsl(348.6, 70.3%, 49.7%)" stroke-width="1.5"></path><path d="M972.02 540.37L972.02 540.37" stroke="hsl(348.6, 70.3%, 49.7%)" stroke-width="1.5"></path><path d="M972.02 540.37L1138.76 509.87" stroke="hsl(348.6, 70.3%, 49.7%)" stroke-width="1.5"></path><path d="M972.02 540.37L793.63 524.37" stroke="hsl(348.6, 70.3%, 49.7%)" stroke-width="1.5"></path><path d="M972.02 540.37L789.1 372.99" stroke="hsl(348.6, 70.3%, 49.7%)" stroke-width="1.5"></path><path d="M972.02 540.37L1139.9 349.58" stroke="hsl(348.6, 70.3%, 49.7%)" stroke-width="1.5"></path><path d="M1144.09 110.68L1144.09 110.68" stroke="hsl(348.6, 70.3%, 49.7%)" stroke-width="1.5"></path><path d="M1144.09 110.68L1133.7 216.07" stroke="hsl(348.6, 70.3%, 49.7%)" stroke-width="1.5"></path><path d="M1133.7 216.07L1133.7 216.07" stroke="hsl(348.6, 70.3%, 49.7%)" stroke-width="1.5"></path><path d="M1133.7 216.07L1253.27 246.03" stroke="hsl(348.6, 70.3%, 49.7%)" stroke-width="1.5"></path><path d="M1133.7 216.07L1139.9 349.58" stroke="hsl(348.6, 70.3%, 49.7%)" stroke-width="1.5"></path><path d="M1133.7 216.07L1239.14 390.08" stroke="hsl(348.6, 70.3%, 49.7%)" stroke-width="1.5"></path><path d="M1139.9 349.58L1139.9 349.58" stroke="hsl(348.6, 70.3%, 49.7%)" stroke-width="1.5"></path><path d="M1139.9 349.58L1239.14 390.08" stroke="hsl(348.6, 70.3%, 49.7%)" stroke-width="1.5"></path><path d="M1138.76 509.87L1138.76 509.87" stroke="hsl(348.6, 70.3%, 49.7%)" stroke-width="1.5"></path><path d="M1138.76 509.87L1239.14 390.08" stroke="hsl(348.6, 70.3%, 49.7%)" stroke-width="1.5"></path><path d="M1138.76 509.87L1139.9 349.58" stroke="hsl(348.6, 70.3%, 49.7%)" stroke-width="1.5"></path><path d="M1138.76 509.87L1312.34 521.22" stroke="hsl(348.6, 70.3%, 49.7%)" stroke-width="1.5"></path><path d="M1138.76 509.87L1296.25 649.42" stroke="hsl(348.6, 70.3%, 49.7%)" stroke-width="1.5"></path><path d="M1302.34 -77.47L1302.34 -77.47" stroke="hsl(348.6, 70.3%, 49.7%)" stroke-width="1.5"></path><path d="M1302.34 -77.47L1389.34 73.43" stroke="hsl(348.6, 70.3%, 49.7%)" stroke-width="1.5"></path><path d="M1302.34 -77.47L1144.09 110.68" stroke="hsl(348.6, 70.3%, 49.7%)" stroke-width="1.5"></path><path d="M1302.34 -77.47L1577.72 -60.83" stroke="hsl(348.6, 70.3%, 49.7%)" stroke-width="1.5"></path><path d="M1302.34 -77.47L1582.91 50.64" stroke="hsl(348.6, 70.3%, 49.7%)" stroke-width="1.5"></path><path d="M1253.27 246.03L1253.27 246.03" stroke="hsl(348.6, 70.3%, 49.7%)" stroke-width="1.5"></path><path d="M1239.14 390.08L1239.14 390.08" stroke="hsl(348.6, 70.3%, 49.7%)" stroke-width="1.5"></path><path d="M1239.14 390.08L1253.27 246.03" stroke="hsl(348.6, 70.3%, 49.7%)" stroke-width="1.5"></path><path d="M1239.14 390.08L1312.34 521.22" stroke="hsl(348.6, 70.3%, 49.7%)" stroke-width="1.5"></path><path d="M1239.14 390.08L1420.96 400.83" stroke="hsl(348.6, 70.3%, 49.7%)" stroke-width="1.5"></path><path d="M1296.25 649.42L1296.25 649.42" stroke="hsl(348.6, 70.3%, 49.7%)" stroke-width="1.5"></path><path d="M1296.25 649.42L1312.34 521.22" stroke="hsl(348.6, 70.3%, 49.7%)" stroke-width="1.5"></path><path d="M1296.25 649.42L1407.88 531.09" stroke="hsl(348.6, 70.3%, 49.7%)" stroke-width="1.5"></path><path d="M1296.25 649.42L1544.32 705.52" stroke="hsl(348.6, 70.3%, 49.7%)" stroke-width="1.5"></path><path d="M1296.25 649.42L1239.14 390.08" stroke="hsl(348.6, 70.3%, 49.7%)" stroke-width="1.5"></path><path d="M1389.34 73.43L1389.34 73.43" stroke="hsl(348.6, 70.3%, 49.7%)" stroke-width="1.5"></path><path d="M1413.98 243.11L1413.98 243.11" stroke="hsl(348.6, 70.3%, 49.7%)" stroke-width="1.5"></path><path d="M1413.98 243.11L1420.96 400.83" stroke="hsl(348.6, 70.3%, 49.7%)" stroke-width="1.5"></path><path d="M1420.96 400.83L1420.96 400.83" stroke="hsl(348.6, 70.3%, 49.7%)" stroke-width="1.5"></path><path d="M1420.96 400.83L1551.14 404.61" stroke="hsl(348.6, 70.3%, 49.7%)" stroke-width="1.5"></path><path d="M1420.96 400.83L1407.88 531.09" stroke="hsl(348.6, 70.3%, 49.7%)" stroke-width="1.5"></path><path d="M1407.88 531.09L1407.88 531.09" stroke="hsl(348.6, 70.3%, 49.7%)" stroke-width="1.5"></path><path d="M1577.72 -60.83L1577.72 -60.83" stroke="hsl(348.6, 70.3%, 49.7%)" stroke-width="1.5"></path><path d="M1577.72 -60.83L1582.91 50.64" stroke="hsl(348.6, 70.3%, 49.7%)" stroke-width="1.5"></path><path d="M1577.72 -60.83L1389.34 73.43" stroke="hsl(348.6, 70.3%, 49.7%)" stroke-width="1.5"></path><path d="M1582.91 50.64L1582.91 50.64" stroke="hsl(348.6, 70.3%, 49.7%)" stroke-width="1.5"></path><path d="M1582.91 50.64L1600.32 227.39" stroke="hsl(348.6, 70.3%, 49.7%)" stroke-width="1.5"></path><path d="M1582.91 50.64L1389.34 73.43" stroke="hsl(348.6, 70.3%, 49.7%)" stroke-width="1.5"></path><path d="M1582.91 50.64L1417.75 -79.51" stroke="hsl(348.6, 70.3%, 49.7%)" stroke-width="1.5"></path><path d="M1600.32 227.39L1600.32 227.39" stroke="hsl(348.6, 70.3%, 49.7%)" stroke-width="1.5"></path><path d="M1600.32 227.39L1551.14 404.61" stroke="hsl(348.6, 70.3%, 49.7%)" stroke-width="1.5"></path><path d="M1600.32 227.39L1413.98 243.11" stroke="hsl(348.6, 70.3%, 49.7%)" stroke-width="1.5"></path><path d="M1551.14 404.61L1551.14 404.61" stroke="hsl(348.6, 70.3%, 49.7%)" stroke-width="1.5"></path><path d="M1551.14 404.61L1603.63 509.2" stroke="hsl(348.6, 70.3%, 49.7%)" stroke-width="1.5"></path><path d="M1551.14 404.61L1407.88 531.09" stroke="hsl(348.6, 70.3%, 49.7%)" stroke-width="1.5"></path><path d="M1551.14 404.61L1413.98 243.11" stroke="hsl(348.6, 70.3%, 49.7%)" stroke-width="1.5"></path><path d="M1603.63 509.2L1603.63 509.2" stroke="hsl(348.6, 70.3%, 49.7%)" stroke-width="1.5"></path><path d="M1603.63 509.2L1407.88 531.09" stroke="hsl(348.6, 70.3%, 49.7%)" stroke-width="1.5"></path><path d="M1603.63 509.2L1544.32 705.52" stroke="hsl(348.6, 70.3%, 49.7%)" stroke-width="1.5"></path><path d="M1603.63 509.2L1420.96 400.83" stroke="hsl(348.6, 70.3%, 49.7%)" stroke-width="1.5"></path><path d="M1544.32 705.52L1544.32 705.52" stroke="hsl(348.6, 70.3%, 49.7%)" stroke-width="1.5"></path><path d="M1544.32 705.52L1407.88 531.09" stroke="hsl(348.6, 70.3%, 49.7%)" stroke-width="1.5"></path><path d="M1544.32 705.52L1312.34 521.22" stroke="hsl(348.6, 70.3%, 49.7%)" stroke-width="1.5"></path><circle r="25" cx="92.12" cy="559.94" fill="url(#SvgjsRadialGradient1001)"></circle><circle r="25" cx="358.75" cy="535.03" fill="url(#SvgjsRadialGradient1001)"></circle><circle r="25" cx="351.97" cy="680.34" fill="url(#SvgjsRadialGradient1001)"></circle><circle r="25" cx="690.5" cy="379.02" fill="url(#SvgjsRadialGradient1001)"></circle><circle r="25" cx="653.37" cy="532.73" fill="url(#SvgjsRadialGradient1001)"></circle><circle r="25" cx="700.41" cy="664.43" fill="url(#SvgjsRadialGradient1001)"></circle><circle r="25" cx="1002.24" cy="398.46" fill="url(#SvgjsRadialGradient1001)"></circle><circle r="25" cx="1272" cy="108.44" fill="url(#SvgjsRadialGradient1001)"></circle><circle r="25" cx="1312.34" cy="521.22" fill="url(#SvgjsRadialGradient1001)"></circle><circle r="25" cx="1417.75" cy="-79.51" fill="url(#SvgjsRadialGradient1001)"></circle><circle r="25" cx="1391.57" cy="663.62" fill="url(#SvgjsRadialGradient1001)"></circle><circle r="5" cx="-94.93" cy="491.53" fill="#d38e9b"></circle><circle r="5" cx="-40.12" cy="690.3" fill="#d38e9b"></circle><circle r="5" cx="44.88" cy="711.87" fill="#d38e9b"></circle><circle r="5" cx="198.87" cy="502.92" fill="#d38e9b"></circle><circle r="5" cx="498.91" cy="510.33" fill="#d38e9b"></circle><circle r="5" cx="503.47" cy="656.7" fill="#d38e9b"></circle><circle r="5" cx="789.1" cy="372.99" fill="#d38e9b"></circle><circle r="5" cx="793.63" cy="524.37" fill="#d38e9b"></circle><circle r="5" cx="848.4" cy="653.21" fill="#d38e9b"></circle><circle r="5" cx="972.02" cy="540.37" fill="#d38e9b"></circle><circle r="5" cx="1144.09" cy="110.68" fill="#d38e9b"></circle><circle r="5" cx="1133.7" cy="216.07" fill="#d38e9b"></circle><circle r="5" cx="1139.9" cy="349.58" fill="#d38e9b"></circle><circle r="5" cx="1138.76" cy="509.87" fill="#d38e9b"></circle><circle r="5" cx="1302.34" cy="-77.47" fill="#d38e9b"></circle><circle r="5" cx="1253.27" cy="246.03" fill="#d38e9b"></circle><circle r="5" cx="1239.14" cy="390.08" fill="#d38e9b"></circle><circle r="5" cx="1296.25" cy="649.42" fill="#d38e9b"></circle><circle r="5" cx="1389.34" cy="73.43" fill="#d38e9b"></circle><circle r="5" cx="1413.98" cy="243.11" fill="#d38e9b"></circle><circle r="5" cx="1420.96" cy="400.83" fill="#d38e9b"></circle><circle r="5" cx="1407.88" cy="531.09" fill="#d38e9b"></circle><circle r="5" cx="1577.72" cy="-60.83" fill="#d38e9b"></circle><circle r="5" cx="1582.91" cy="50.64" fill="#d38e9b"></circle><circle r="5" cx="1600.32" cy="227.39" fill="#d38e9b"></circle><circle r="5" cx="1551.14" cy="404.61" fill="#d38e9b"></circle><circle r="5" cx="1603.63" cy="509.2" fill="#d38e9b"></circle><circle r="5" cx="1544.32" cy="705.52" fill="#d38e9b"></circle></g><defs><mask id="SvgjsMask1000"><rect width="1440" height="560" fill="#ffffff"></rect></mask><radialGradient id="SvgjsRadialGradient1001"><stop stop-color="#ffffff" offset="0.1"></stop><stop stop-color="rgba(166, 29, 55, 1)" offset="0.2"></stop><stop stop-color="rgba(166, 29, 55, 0)" offset="1"></stop></radialGradient></defs></svg>